<?xml version="1.0" encoding="UTF-8"?>
<svg id="Layer_2" data-name="Layer 2" xmlns="http://www.w3.org/2000/svg" viewBox="0 0 700 700">
  <defs>
    <style>
      .cls-1 {
        fill: #062b3f;
      }

      .cls-1, .cls-2, .cls-3, .cls-4, .cls-5 {
        stroke-width: 0px;
      }

      .cls-2 {
        fill: #c8e2eb;
      }

      .cls-3 {
        fill: #b1cfdb;
      }

      .cls-4 {
        fill: #cde6ed;
      }

      .cls-5 {
        fill: #7fa6b9;
      }
    </style>
  </defs>
  <g id="Layer_1-2" data-name="Layer 1">
    <g id="SxhkUV">
      <g>
        <rect class="cls-2" width="700" height="700"/>
        <path class="cls-1" d="m358.86,555.08v12.33h-17.54v-25.15c-20.03-15.25-40.18-30.59-60.32-45.93v-18.24c-26.98-20.29-54.04-40.65-81.2-61.08v-53.05h-28.59v-16.85h28.4v-39.81c26.93-21.11,53.96-42.3,81.19-63.65v-16.33c20.04-15.78,40.04-31.54,60.24-47.45v-34.14h17.39v34.3c20.07,15.65,40.14,31.31,60.26,46.99v16.75c26.74,20.9,53.62,41.9,80.75,63.11v40.12h28.1v16.77h-27.74c-.79,17.33,3.35,38.07-1.46,54.73-26.73,19.74-53.06,39.99-79.68,59.87v18.1c-20.27,15.59-40.19,30.91-59.81,46v12.6Zm-78.82-288.14h-.1c-11.15,6.24-21.31,16.13-31.45,23.92-10.41,7.99-20.81,15.99-31.21,23.99v31.85c5.32,0,12.61,1.18,17.59-.89,5.08-2.11,9.97-7.41,14.32-10.73,10.52-8.04,21.08-16.02,31.65-24.01v-43.8c-.04-.37-.08-.73-.17-1.58-.37.72-.5.98-.63,1.24Zm100.01,167.11c-7.14,5.18-14.28,10.36-21.03,15.26v71.66c7.51-5.97,14.61-11.62,21.71-17.26,6.95-5.31,13.89-10.62,20.52-15.69v-69.74c-7.42,5.52-14.31,10.65-21.2,15.78Zm101.86-119.56c-8.86-9.19-21.03-16.49-31.14-24.31-10.2-7.88-20.39-17.82-31.62-24.14v45.11c10.61,8.1,21.23,16.21,31.84,24.3,4.38,3.34,10.12,9.73,15.49,11.16,4.58,1.22,10.95.03,15.69.03,1.29-9.23,1.81-23.08-.26-32.17Zm-164.17,188.21c7.64,5.93,15.29,11.86,23.26,18.05v-71.92c-7.19-5.23-14.43-10.51-21.68-15.79-6.95-5.15-13.9-10.31-21.18-15.71v70.74c6.52,4.86,13.06,9.74,19.6,14.62Zm70.56-138.32c-1.87-.9-2.39.68-3.04,1.76-3.4,5.63-7.36,10.81-12.28,15.21-4.58,2.13-9.17,4.27-13.96,6.5v40.05c28.36-21.3,56.44-42.39,85.13-63.94-18.62,0-37.23.21-55.84.42Zm-7.44-145.15c-7.1-5.56-14.21-11.11-21.93-17.15v110.81c17.06,5.08,27.34,16.03,29.5,33.96h49.25c-12.52-9.57-24.37-18.64-35.9-27.45-.18-3.61-.33-6.68-.49-9.74,1.6-12.13.2-25.3.16-37.53-.04-12.62.55-25.45-.27-38.05-6.78-4.95-13.56-9.9-20.34-14.85Zm-82.64,91.14c0,2.73,0,5.46.01,8.18,0,.23,0,.45,0,.68-10.63,10.21-24.08,18.22-35.8,27.2.1.18.2.36.3.54h48.71c1.87-18.31,12.43-29.08,29.56-34.22v-110.33c-7.62,6.02-15.39,11.84-23.14,17.69-6.8,4.76-13.23,9.96-19.75,15.1,0,25.05.05,50.11.11,75.16Zm-17.4,93.25c-11.08-8.13-22.15-16.28-33.16-24.51-10.08-7.54-17.23-15.41-30.4-14.72v44.48c21.13,15.92,42.13,31.75,63.56,47.9v-53.15Zm201.09-39.2c-12.03-2.29-21.78,9.04-30.67,15.51-10.76,7.84-21.43,15.8-32.13,23.7v53.32c21.22-16.19,42.02-32.06,62.8-47.91v-44.63Zm-225.07-.36c-.04.19-.09.38-.13.56,28.02,21.02,56.03,42.04,84.31,63.25v-40.55c-12.94-3.44-22.25-11.04-27.52-23.26h-56.67Zm71.65-15.22c-1.54,29.41,44.44,28.73,42.95.52-1.38-26.06-43.05-27.26-42.95-.52Z"/>
        <path class="cls-4" d="m298.24,318.55c0-2.73,0-5.46-.01-8.18,7.18-4.89,14.12-9.97,21.01-15.25,0-24.69,2.25-50.59-1.37-75.01,7.75-5.85,15.52-11.68,23.14-17.69v110.33c-17.13,5.14-27.69,15.91-29.56,34.22h-48.71c-.1-.18-.2-.36-.3-.54,11.72-8.98,25.17-16.99,35.8-27.2.07-.07.22-.15.21-.19-.04-.17-.14-.32-.21-.48Z"/>
        <path class="cls-4" d="m401.31,309.65c.15,3.06.31,6.13.49,9.74,11.52,8.81,23.38,17.88,35.9,27.45h-49.25c-2.16-17.93-12.44-28.88-29.5-33.96v-110.81c7.72,6.04,14.82,11.59,21.93,17.15-1.21,12.25-.19,25.06-.18,37.37,0,12.77-.43,25.63.15,38.38,6.73,5.11,13.43,10.01,20.48,14.67Z"/>
        <path class="cls-5" d="m280.83,403.62v53.15c-21.43-16.15-42.44-31.98-63.56-47.9v-44.48c13.18-.69,20.32,7.19,30.4,14.72,11.01,8.23,22.08,16.38,33.16,24.51Z"/>
        <path class="cls-5" d="m481.92,364.41v44.63c-20.78,15.85-41.58,31.72-62.8,47.91v-53.32c10.71-7.91,21.37-15.87,32.13-23.7,8.89-6.48,18.64-17.8,30.67-15.51Z"/>
        <path class="cls-4" d="m256.86,364.05h56.67c5.26,12.22,14.58,19.82,27.52,23.26v40.55c-28.28-21.21-56.29-42.23-84.31-63.25.04-.19.09-.38.13-.56Z"/>
        <path class="cls-4" d="m388.31,364.37c18.62-.21,37.23-.42,55.84-.42-28.69,21.55-56.77,42.64-85.13,63.94v-40.05c4.79-2.23,9.37-4.36,13.96-6.5,8.1-2.93,12.3-8.06,16.56-15.58-.49-.55-.86-.97-1.23-1.38Z"/>
        <path class="cls-5" d="m317.87,220.11c3.62,24.42,1.37,50.32,1.37,75.01-6.89,5.29-13.83,10.36-21.01,15.25-.06-25.05-.11-50.11-.11-75.16,6.51-5.15,12.94-10.34,19.75-15.1Z"/>
        <path class="cls-4" d="m319.33,433.03c7.25,5.28,14.49,10.55,21.68,15.79v71.92c-7.97-6.19-15.62-12.12-23.26-18.05.5-1.8,1.41-3.61,1.42-5.41.13-21.42.13-42.83.16-64.25Z"/>
        <path class="cls-5" d="m401.31,309.65c-7.05-4.66-13.75-9.56-20.48-14.67-.58-12.75-.15-25.62-.15-38.38,0-12.31-1.02-25.12.18-37.37,6.78,4.95,13.56,9.9,20.34,14.85.82,12.6.23,25.42.27,38.05.04,12.24,1.44,25.4-.16,37.53Z"/>
        <path class="cls-3" d="m419.15,290.5v-24.46c11.23,6.32,21.42,16.25,31.62,24.14,10.11,7.81,22.29,15.11,31.14,24.31v24.59c-22.15-14.02-41.7-32.94-62.76-48.57Z"/>
        <path class="cls-5" d="m217.29,339.11v-24.25c10.4-8,20.8-16,31.21-23.99,10.14-7.79,20.3-17.68,31.45-23.91v23.95c-20.74,16.21-41.01,33.23-62.66,48.21Z"/>
        <path class="cls-4" d="m380.73,503.7c-7.1,5.65-14.21,11.29-21.71,17.26v-71.66c6.75-4.89,13.89-10.08,21.03-15.26.22.95.63,1.91.63,2.86.04,22.26.04,44.53.05,66.79Z"/>
        <path class="cls-5" d="m319.33,433.03c-.03,21.42-.03,42.83-.16,64.25-.01,1.81-.93,3.61-1.42,5.41-6.54-4.88-13.08-9.76-19.6-14.62v-70.74c7.28,5.4,14.23,10.55,21.18,15.71Z"/>
        <path class="cls-4" d="m328.51,348.83c-.1-26.74,41.56-25.55,42.95.52,1.49,28.22-44.49,28.89-42.95-.52Z"/>
        <path class="cls-5" d="m380.73,503.7c0-22.26,0-44.53-.05-66.79,0-.95-.41-1.91-.63-2.86,6.89-5.13,13.78-10.25,21.2-15.78v69.74c-6.63,5.07-13.57,10.38-20.52,15.69Z"/>
        <path class="cls-5" d="m419.15,290.5c21.07,15.63,40.61,34.55,62.76,48.57v-24.59c2.07,9.09,1.55,22.93.26,32.17-4.74,0-11.11,1.19-15.69-.03-5.38-1.43-11.12-7.83-15.49-11.16-10.62-8.1-21.23-16.2-31.84-24.3v-20.65Z"/>
        <path class="cls-5" d="m217.29,339.11c21.64-14.98,41.92-32,62.66-48.21v-23.95h.1c.27.1.54.22.8.33v43.8c-10.56,7.99-21.12,15.97-31.65,24.01-4.35,3.32-9.25,8.62-14.32,10.73-4.98,2.07-12.27.89-17.59.89v-7.6Z"/>
        <path class="cls-3" d="m388.31,364.37c.37.42.74.83,1.23,1.38-4.26,7.53-8.45,12.65-16.56,15.58,4.92-4.4,8.88-9.57,12.28-15.21.66-1.09,1.18-2.66,3.04-1.76Z"/>
        <path class="cls-3" d="m280.85,267.28c-.27-.11-.54-.23-.8-.34.13-.26.27-.52.63-1.24.09.85.13,1.22.17,1.58Z"/>
        <path class="cls-3" d="m298.24,318.55c.07.16.17.32.21.48.01.04-.13.13-.21.19,0-.23,0-.45,0-.68Z"/>
      </g>
    </g>
  </g>
</svg>